<?xml version="1.0" encoding="UTF-8" standalone="no"?>
<!-- Generator: visioncortex VTracer -->

<svg
   id="svg"
   version="1.1"
   style="display: block;"
   viewBox="0 0 512 512"
   sodipodi:docname="wizard2.svg"
   inkscape:version="1.3.2 (1:1.3.2+202311252150+091e20ef0f)"
   inkscape:export-filename="wizard2.png"
   inkscape:export-xdpi="96"
   inkscape:export-ydpi="96"
   xmlns:inkscape="http://www.inkscape.org/namespaces/inkscape"
   xmlns:sodipodi="http://sodipodi.sourceforge.net/DTD/sodipodi-0.dtd"
   xmlns="http://www.w3.org/2000/svg"
   xmlns:svg="http://www.w3.org/2000/svg">
  <defs
     id="defs23" />
  <sodipodi:namedview
     id="namedview23"
     pagecolor="#ffffff"
     bordercolor="#666666"
     borderopacity="1.0"
     inkscape:showpageshadow="2"
     inkscape:pageopacity="0.0"
     inkscape:pagecheckerboard="0"
     inkscape:deskcolor="#d1d1d1"
     inkscape:zoom="1.4142136"
     inkscape:cx="191.62594"
     inkscape:cy="221.32442"
     inkscape:window-width="1920"
     inkscape:window-height="999"
     inkscape:window-x="1920"
     inkscape:window-y="0"
     inkscape:window-maximized="1"
     inkscape:current-layer="svg" />
  <path
     d="m 0,0 h 46 l 23,3 11,2.5 3.703857,0.8757324 3.214112,0.7922363 3.57959,0.9038086 L 94,9 l 3.217285,0.9243164 3.083495,0.9389646 3.02637,0.962158 2.98535,0.987061 3.00488,1.020264 2.96778,1.042236 2.90283,1.058594 L 118,17 l 2.66748,1.058594 2.57861,1.066406 2.52515,1.084229 2.47876,1.103271 2.44556,1.124756 2.42944,1.152588 2.42187,1.183105 L 138,26 l 2.54687,1.293457 2.57813,1.335449 2.5708,1.362061 2.5542,1.384033 2.51904,1.397705 2.47315,1.406982 2.4209,1.413086 L 158,37 l 2.2041,1.383789 2.11621,1.374023 2.05469,1.371583 2,1.370605 1.96094,1.374512 1.92187,1.375488 1.88379,1.375 L 174,48 l 1.85059,1.375 1.8291,1.375 1.79858,1.373535 L 181.25,53.5 184.71484,56.273437 188,59 l 2.94141,2.539062 2.87109,2.585938 2.87891,2.683594 1.55127,1.483886 L 200,70 l 2.17529,2.141113 2.35205,2.331543 2.36597,2.356934 2.35669,2.35791 2.31567,2.32666 2.13745,2.153809 1.92676,1.946045 L 217,87 l 2.05469,2.570312 1.34814,1.695069 1.47217,1.859619 1.50732,1.91626 1.53955,1.970459 1.56446,2.01709 L 228,101 l 2.64062,3.51953 2.48438,3.41797 2.47266,3.50781 L 238,115 l 2.30859,3.61719 2.25391,3.69531 2.1875,3.71094 1.10156,1.9248 L 247,130 l 1.26562,2.31738 1.29688,2.40918 1.26733,2.37769 1.23267,2.33325 1.19556,2.28052 1.0896,2.09057 L 256,147 l 0.80688,1.91406 1.13453,2.71094 1.25927,3.04419 1.36182,3.33081 1.37744,3.41479 1.38428,3.50318 1.38037,3.57959 L 266,172 l 1.09619,3.21729 0.98584,3.08349 0.92285,3.0271 0.87012,2.98462 0.85059,2.99829 0.80957,2.96265 0.7583,2.90136 L 273,196 l 0.64795,2.71582 0.59814,2.63574 0.5542,2.57593 0.51221,2.51001 0.47314,2.43384 0.43702,2.39038 0.40283,2.35693 L 277,216 l 0.35498,2.51025 0.32861,2.50928 0.27906,2.22583 L 278.25,225.75 279,233 v 31 C 280.27335,265.5316 52,49 52,49 H -6 c -1.8182796,4.545699 -63.213433,107.60092 -64,109 l -3.996094,0.51562 -2.610595,0.34839 -2.830811,0.38599 -2.856201,0.39575 -2.901611,0.42066 -2.938477,0.4497 L -91,161 l -2.663086,0.53467 -2.516601,0.55517 -2.190918,0.50367 -2.441895,0.59399 L -108,165 l -21,9 -15,9 -4.375,3.4375 -2.73437,2.18359 L -154,191 l -2.89062,2.53516 -2.73438,2.46484 -4.375,4 -9,10 -3,11 97,97 1,70 h -1 v -31 l -7.992187,3.22656 -2.756257,1.11342 -2.464935,0.9962 -2.80011,1.13187 -2.861511,1.15695 -2.84735,1.15134 -2.86505,1.15896 -2.89133,1.17037 -2.9119,1.17949 -2.9429,1.19279 -2.93405,1.19051 -2.90063,1.17852 L -121,374 l -2.70679,1.10614 -2.61938,1.07306 -2.55234,1.04736 -2.48086,1.01953 -2.40983,0.99121 -2.34457,0.96534 -2.27692,0.93841 -2.23431,0.92145 -2.23871,0.9234 -2.17486,0.8974 -4.00049,1.65186 L -155,388 l -16,9 c -2.82705,1.38702 -11.97634,13.55715 -15,9 l -2.05469,-3.08594 -1.34814,-2.04223 -1.47217,-2.24683 -1.50732,-2.323 -1.53955,-2.39966 -1.56446,-2.46923 L -197,389 l -1.35742,-2.24951 -1.2832,-2.18408 -1.25269,-2.18189 -1.23169,-2.19702 -1.24146,-2.26147 -1.2312,-2.29322 -1.21142,-2.31152 L -207,371 l -1.16357,-2.30566 -1.14502,-2.32715 -1.13453,-2.38257 -1.11938,-2.42212 -1.09399,-2.42407 -1.09351,-2.52515 -1.10156,-2.66162 L -216,351 l -1.26562,-3.51807 -1.29688,-3.75146 -1.26733,-3.75415 -1.23267,-3.72632 -1.19556,-3.66577 -1.0896,-3.38111 -0.96899,-3.04199 L -225,324 l -0.98828,-4.25781 -0.64258,-2.84375 -0.68164,-3.02344 -0.64648,-2.76563 -0.6543,-2.92968 L -230,301 l -3,-22 v -46 l 3,-23 2.5,-11 0.87573,-3.70386 0.79224,-3.21411 0.90381,-3.57959 L -224,185 l 0.92432,-3.21729 0.93896,-3.08349 0.96216,-3.02637 0.98706,-2.98535 1.02026,-3.00488 1.04224,-2.96778 1.05859,-2.90283 L -216,161 l 1.05859,-2.66748 1.06641,-2.57861 1.08423,-2.52515 1.10327,-2.47876 1.12476,-2.44556 1.15258,-2.42944 1.18311,-2.42188 L -207,141 l 1.29346,-2.54688 1.33545,-2.57812 1.36206,-2.5708 1.38403,-2.5542 1.39771,-2.51904 1.40698,-2.47315 1.41308,-2.4209 L -196,121 l 1.38379,-2.2041 1.37402,-2.11621 1.37158,-2.05469 1.37061,-2 1.37451,-1.96094 1.37549,-1.92187 1.375,-1.88379 L -185,105 l 1.375,-1.85059 1.375,-1.8291 1.37354,-1.798581 L -179.5,97.75 -176.72656,94.285156 -174,91 l 2.53906,-2.941406 2.58594,-2.871094 2.68359,-2.878906 1.48389,-1.55127 L -163,79 l 2.14111,-2.175293 2.33155,-2.352051 2.35693,-2.365967 2.35791,-2.356689 2.32666,-2.315674 2.15381,-2.137451 1.94604,-1.926758 L -146,62 l 2.57031,-2.054688 1.69507,-1.348144 1.85962,-1.472168 1.91626,-1.507324 1.97046,-1.539551 2.01709,-1.564453 L -132,51 l 3.51953,-2.640625 3.41797,-2.484375 3.51562,-2.476563 L -118,41 l 3.54687,-2.273438 3.64063,-2.226562 3.70312,-2.183594 1.9629,-1.120605 L -103,32 l 2.51367,-1.36377 2.658205,-1.421386 2.647705,-1.402344 2.61792,-1.375 2.569092,-1.339844 2.364502,-1.226562 L -84,22 -82.269531,21.284912 -79.8125,20.277344 -77.042236,19.155029 -74,17.9375 l 3.130127,-1.235107 3.233154,-1.249268 3.330567,-1.255859 L -61,13 l 3.122559,-1.048828 3.04541,-0.966797 3.019287,-0.918945 L -48.8125,9.1875 -45.790771,8.3251953 -42.796875,7.5 -39.857422,6.7226562 -37,6 -34.275391,5.3476562 -31.640625,4.75 -29.039795,4.1945801 -26.5625,3.6875 -22.191406,2.8242188 -17,2 Z"
     transform="translate(233)"
     style="fill:#8bc8fe;fill-opacity:1"
     id="path1"
     sodipodi:nodetypes="cccccccccccccccccccccccccccccccccccccccccccccccccccccccccccccccccccccccccccccccccccccccccccccccccccccccccccccccccccccccccccccccccccccccccccccccccccccccccccccccccccccccccccccccccccccccccccccccccccccccccccccccccccccccccccccccccccccccccccccccccccccccccccccccccccccccccccccccccccccccccccccccccccccccccccccccccccccc" />
  <path
     d="m 0,0 c 5.1223384,1.1040113 1.6082219,0.37112812 52,12 l 135,135 v 15 l -0.66406,5.28125 -0.4524,3.45508 -0.50854,3.76367 -0.53784,3.8418 -0.57544,3.9082 -0.61572,3.95312 L 183,190 l -0.66553,3.35937 -0.68994,3.14063 -0.71557,3.03809 -0.74146,2.96191 -0.77075,2.96973 -0.79175,2.92089 -0.80859,2.84571 L 177,214 l -0.80859,2.6543 -0.81641,2.58007 -0.83374,2.5293 -0.85376,2.48633 -0.87915,2.45508 -0.90601,2.43554 -0.93408,2.42383 L 170,234 l -1.01123,2.48242 -1.04736,2.50195 -1.08033,2.50782 L 165.75,244 l -1.13647,2.49219 -1.16822,2.49218 -1.20215,2.49805 L 161,254 l -1.29785,2.56445 -1.33496,2.57617 -1.36304,2.56739 -1.37915,2.54199 -1.37329,2.4873 -1.38843,2.4502 -1.40771,2.41406 L 150,274 l -1.56104,2.42969 -1.58349,2.38281 -1.54346,2.27246 -1.49951,2.16504 -1.46045,2.0791 -1.33252,1.87402 L 139,290 l -3,4 -4,-8 -10,-8 -12,-7 V 127 L 61.741089,126.90672 62,251 57.873755,249.26263 33,240 V 102 h 100 c 0.0135,0.0524 -20.93297,-24.738074 -28,-31 L 46,44 24,41 C 9.4449223,16.003753 6.8113616,11.087835 0,0 Z"
     transform="translate(325,117)"
     style="fill:#6ab3fc;fill-opacity:1"
     id="path2"
     sodipodi:nodetypes="ccccccccccccccccccccccccccccccccccccccccccccccccccccccccccccccccc" />
  <path
     d="M -0.92089765,0.68503869 2,0 v 31 l 102,71 v 53 H 81 L 71.4375,153.8125 68.235596,153.39453 65.425781,153 62.248535,152.53125 59,152 55.700684,151.36719 52.417969,150.6875 49.226807,150.00073 46.125,149.3125 43.064209,148.62622 40.257812,147.98828 36,147 33.838867,146.31665 30.796875,145.34766 27.41626,144.2583 23.75,143.0625 20.019287,141.82764 16.261719,140.55859 12.509277,139.26123 9,138 6.0805664,136.86768 3.4570313,135.78516 0.96289062,134.70728 -1.4375,133.625 -3.8417969,132.51343 -6.2304687,131.375 -8.5952148,130.21094 -11,129 l -2.533691,-1.28906 -2.57959,-1.33594 -2.575928,-1.36377 -2.560791,-1.38623 -2.519775,-1.39795 -2.472412,-1.40674 -2.420899,-1.41308 L -31,118 l -2.204102,-1.38379 -2.11621,-1.37402 -2.054688,-1.37158 -2,-1.37061 -1.960937,-1.37451 -1.921875,-1.37549 -1.88379,-1.375 L -47,107 l -1.850586,-1.375 -1.829101,-1.375 -1.798584,-1.37354 L -54.25,101.5 -57.714844,98.726562 -61,96 -63.941406,93.460937 -66.8125,90.875 -69.691406,88.191406 -71.242676,86.70752 -73,85 -75.175293,82.858887 -77.527344,80.527344 -79.893311,78.17041 -82.25,75.8125 -84.565674,73.48584 -86.703125,71.332031 -90,68 l -11,-14 -4,-5 15,-10 16,-9 4.761719,-1.992188 3.268799,-1.362304 3.656982,-1.520508 3.776123,-1.567383 4.091065,-1.69043 2.178482,-0.897216 2.289291,-0.939698 2.406128,-0.984008 L -45,18 l 2.821411,-1.140015 2.968628,-1.194946 3.052719,-1.225983 3.102555,-1.243743 3.09291,-1.238617 3.09581,-1.238434 3.091461,-1.2354129 L -20.6875,8.25 l 3.105804,-1.2401733 3.047272,-1.2163697 2.917572,-1.164093 2.7926332,-1.113739 2.7042542,-1.0778503 2.4493103,-0.9758606 z"
     transform="translate(152,357)"
     style="fill:#eaeae1;fill-opacity:1"
     id="path3"
     sodipodi:nodetypes="cccccccccccccccccccccccccccccccccccccccccccccccccccccccccccccccccccccccccccccccccccccccccccccccc" />
  <path
     d="m 0,0 h 33 v 169 c 0,0 -86.515172,59.67952 -102,71 V 117 h 15 l 5,-1 10,-5 7,-8 4,-9 V 87 H -69 V 60 H 0 Z"
     transform="translate(325,219)"
     style="fill:#ccd1e0"
     id="path4"
     sodipodi:nodetypes="ccccccccccccccc" />
  <path
     d="M -0.5,-1.5 31.988727,-1.339957 32,59 h 69 V 86 H 60 l 3,15 8,9 12,6 h 18 V 239 C 100.96764,238.99532 -1,168 -1,168 -1.0986641,112.37847 -1.1682665,54.427146 -0.5,-1.5 Z"
     transform="translate(155,220)"
     style="fill:#e8ecf4"
     id="path5"
     sodipodi:nodetypes="ccccccccccccc" />
  <path
     d="m 0,0 10,3 19,8 v 0 L 28.973808,120.12566 13,129 7.8164062,131.62891 5.6748047,132.62329 3.5625,133.5625 1.1728516,134.63647 -1.3867187,135.75 -4.0483398,136.85156 -7,138 l -3.518066,1.26562 -3.751465,1.29688 -3.754151,1.26733 -3.726318,1.23267 -3.665771,1.19556 -3.381104,1.0896 -3.041992,0.96899 L -34,147 l -4.222656,0.98828 -2.790772,0.63794 -3.049072,0.68628 -3.093994,0.68823 -3.195068,0.68677 -3.301758,0.67969 L -57,152 -60.34668,152.53125 -63.648437,153 -66.57959,153.39453 -69.9375,153.8125 -80,155 h -22 V 102 C -101.6597,101.83109 0,31 0,31 Z"
     transform="translate(358,357)"
     style="fill:#d8d8c5;fill-opacity:1"
     id="path10"
     sodipodi:nodetypes="ccccccccccccccccccccccccccccccccccccc" />
  <path
     d="M -1.4380046,0.1977692 4.0780779,0 H 7 C 30.6287,0.03919073 54.847815,-0.06193066 78.476562,-0.03515704 L 100,0 v 61 l -203,-1 3,-4 2.089844,-2.527344 2.847656,-3.410156 1.495361,-1.780029 1.520264,-1.790284 1.541016,-1.790039 L -89,43 -86.265625,40.132812 -83.8125,37.6875 -80,34 -67,24 -50,14 -31,6 -10,1 Z"
     transform="translate(156,158)"
     style="fill:#eaeae1;fill-opacity:1"
     id="path11"
     sodipodi:nodetypes="cccccccccccccccccccccc" />
  <path
     d="m 0,0 h 93 l 22,3 16.09302,4.5109865 14.09301,5.5109865 L 159,20 172.56641,28.304687 176,31 l 3.15234,2.695312 3.03516,2.742188 2.96484,2.765625 L 188,42 190.75391,44.921875 193.25,47.6875 195.45312,50.199219 197,52 200.16628,56.935852 202,61 H 0 Z"
     transform="translate(256,158)"
     style="fill:#d8d8c5;fill-opacity:1"
     id="path12"
     sodipodi:nodetypes="cccccccccccccccccccc" />
  <path
     d="M -1.2589111,-0.09327888 47,0 v 196 l -10,10 -2.570313,2.05469 -1.697265,1.34936 -1.857422,1.47095 -1.896484,1.49634 -1.955079,1.531 -2.012695,1.56202 L 23,217 l -1.94043,1.43799 -1.895508,1.37842 -1.862792,1.33838 L 15.5,222.4375 12.15625,224.80859 9,227 5.59375,229.28516 3,231 l -4.0261925,2.12566 c 0,-0.84458 -0.2327186,-233.21893888 -0.2327186,-233.21893888 z"
     transform="translate(388,244)"
     style="fill:#9fa6b2;fill-opacity:1"
     id="path13"
     sodipodi:nodetypes="ccccccccccccccccccccc" />
  <path
     d="m 0,0 h 29 c 8.86156,14.928935 54.16798,91.302364 64,109 H 0 Z"
     transform="translate(256,49)"
     style="fill:#e0e0d1;fill-opacity:1"
     id="path14"
     sodipodi:nodetypes="ccccc" />
  <path
     d="M 0,0 H 29 V 109 H -64 Z"
     transform="translate(227,49)"
     style="fill:#f2f2ed;fill-opacity:1"
     id="path15"
     sodipodi:nodetypes="ccccc" />
  <path
     d="M 0,0 101.5,0.5 101,100 Z"
     transform="translate(53,218)"
     style="fill:#64b0fb"
     id="path16"
     sodipodi:nodetypes="cccc" />
  <path
     d="M 0,0 H 69 V 60 H 0 Z"
     transform="translate(256,219)"
     style="fill:#df9280"
     id="path17"
     sodipodi:nodetypes="ccccc" />
  <path
     d="M -0.01127289,-0.33995701 69,0 V 60 H 0 Z"
     transform="translate(187,219)"
     style="fill:#f9a68e"
     id="path18"
     sodipodi:nodetypes="ccccc" />
  <path
     d="M -1,-2 C 29.035156,25.316406 43,37 91,78 L 39,66 C 26.641776,45.284597 13.834473,23.023621 -1,-2 Z"
     transform="translate(286,51)"
     style="fill:#d8d8c5;fill-opacity:1"
     id="path19"
     sodipodi:nodetypes="cccc" />
  <path
     d="M0 0 C13.53 0 27.06 0 41 0 C41 9.9 41 19.8 41 30 C35.06 30 29.12 30 23 30 C19.04 28.02 15.08 26.04 11 24 C8.36 21.03 5.72 18.06 3 15 C2.01 12.36 1.02 9.72 0 7 C0 4.69 0 2.38 0 0 Z "
     transform="translate(215,306)"
     style="fill: #F9A68E;"
     id="path20" />
  <path
     d="M0 0 C13.53 0 27.06 0 41 0 C41 2.31 41 4.62 41 7 C39.68 9.97 38.36 12.94 37 16 C34.69 18.64 32.38 21.28 30 24 C25.05 26.475 25.05 26.475 20 29 C18.35 29.33 16.7 29.66 15 30 C10.05 30 5.1 30 0 30 C0 20.1 0 10.2 0 0 Z "
     transform="translate(256,306)"
     style="fill: #DF9380;"
     id="path21" />
  <path
     d="M 0,0 8.3095165,4.847218 16.6875,9.75 C 20.87229,12.611069 24.766594,15.579021 29,19 L 26,23 24.347656,25.054687 22.0625,27.875 19.574219,30.914062 17,34 14.644531,36.710937 12.375,39.25 10.152344,41.695312 8,44 5.8789062,46.179687 3.9375,48.125 0,52 Z"
     transform="translate(435,388)"
     style="fill:#d8d8c5;fill-opacity:1"
     id="path22"
     sodipodi:nodetypes="ccccccccccccccccc" />
</svg>
